<?xml version="1.0" encoding="utf-8"?>
<!-- Generator: Adobe Illustrator 22.0.0, SVG Export Plug-In . SVG Version: 6.00 Build 0)  -->
<svg version="1.1" id="Layer_1" xmlns="http://www.w3.org/2000/svg" xmlns:xlink="http://www.w3.org/1999/xlink" x="0px" y="0px"
	 viewBox="0 0 3840 2160" style="enable-background:new 0 0 3840 2160;" xml:space="preserve">
<style type="text/css">
	.st0{fill:#231F20;}
	.st1{fill:#89181B;}
	.st2{display:none;fill:#89181B;}
	.st3{fill:#060808;}
</style>
<g>
	<g>
		<g>
			<path class="st0" d="M758.8,1424l9.3,3.3c-10.8,32.8-27.3,56.5-49.6,71.1c-22.2,14.6-52.8,21.8-91.7,21.8
				c-62.4,0-111.3-18.6-146.8-55.8c-34.6-36.5-51.9-82.7-51.9-138.4c0-27.3,4.8-54.2,14.4-80.8c9.6-26.6,22.7-49.4,39.4-68.3
				c18.8-21.7,41.9-38.3,69.2-49.7c27.3-11.5,57.2-17.2,89.6-17.2c44.8,0,79.8,10.1,105.1,30.2c15.4,12.4,23.2,26,23.2,40.9
				c0,9.9-3.2,18.2-9.7,24.9c-6.5,6.7-14.4,10-23.6,10c-20.1,0-34.9-14.7-44.5-44.1c-4.3-13.6-7.8-22.9-10.4-27.9
				c-2.6-5-6.4-9.3-11.3-13c-9.6-7.1-21.3-10.7-35.1-10.7c-18.2,0-35,5.1-50.4,15.3c-13.6,9-25,20.2-34.4,33.7
				c-9.4,13.5-17.6,30.4-24.7,50.9c-10.8,31.3-16.2,62-16.2,92c0,27.6,4.9,54.5,14.8,80.8c9.9,26.3,23.3,48.3,40.2,66
				c26.5,27.9,57.6,41.8,93.4,41.8c29.6,0,54.1-9.4,73.5-28.3C740.4,1462.4,749.8,1446.3,758.8,1424z"/>
			<path class="st0" d="M832.2,1315.7c0-50.2,18.5-94.9,55.6-134.3c45.1-47.7,99-71.5,161.6-71.5c62.7,0,116.4,23.9,161.2,71.5
				c37.1,39.7,55.6,84.6,55.6,134.7c0,49.6-17.6,93.7-52.8,132.4c-43.2,47.7-97.9,71.5-164,71.5c-66.1,0-120.9-23.8-164.4-71.5
				c-17-18.6-30-39.3-39.1-62.3C836.7,1363.4,832.2,1339.9,832.2,1315.7z M916.5,1310.4c0,53.8,12,99.5,36.1,136.9
				c27.2,41.8,60.4,62.6,99.6,62.6c16.7,0,32.9-4.6,48.6-13.9s29.3-22.3,40.8-39c12-17.3,21.8-39.1,29.2-65.2s11.1-51.4,11.1-75.9
				c0-25.4-3.9-51-11.8-76.8c-7.9-25.8-18.5-48-31.7-66.6c-25.3-35-56.4-52.4-93.1-52.4c-34.9,0-65,18.4-90.3,55.2
				C929.3,1212.2,916.5,1257.2,916.5,1310.4z"/>
			<path class="st0" d="M1448.8,1109.9c4.3,18.1,6.5,34.9,6.5,50.4v7.5c38.3-38.6,83.8-57.9,136.6-57.9c39.5,0,71.3,9.3,95.4,27.8
				c23.8,18.3,35.7,44.2,35.7,78v196.8c0,21,1.2,36.4,3.7,46.2c2.5,9.8,7.3,17.9,14.4,24.4c8.6,8.4,24.5,14.7,47.7,19v9.8h-204.7
				v-9.8c18.5-2.5,31.8-6,39.8-10.4c8-4.5,14.5-12.1,19.5-23c3.4-7.1,5.8-17.9,7.2-32.2s2.1-35,2.1-62v-98.4
				c0-33.7-1.2-58.5-3.5-74.2c-2.3-15.8-6.7-28.5-13.2-38.1c-7.1-10.8-17.3-19.3-30.5-25.3c-13.2-6-27.9-9.1-43.9-9.1
				c-17.3,0-33.4,3.4-48.3,10.2c-14.9,6.8-26.7,16.1-35.3,27.8c-9.2,12.4-15.3,26.4-18.3,42s-4.4,41.5-4.4,77.7v90.9l0.5,34.3
				c0,21,1.2,36.4,3.7,46.2c2.5,9.7,7.3,17.9,14.4,24.4c8.6,8.4,24.5,14.7,47.7,19v9.8h-204.7v-9.8c18.5-2.5,31.8-5.9,39.8-10.4
				c8-4.5,14.5-12.1,19.5-22.9c3.4-7.1,5.8-17.8,7.2-32.1c1.4-14.3,2.1-35.1,2.1-62.2v-114.2c0-31.7-0.8-54-2.3-66.8
				c-1.5-12.8-4.9-23.2-10.2-31.2c-5.3-8.6-11.6-14.9-19-18.7c-7.4-3.8-18.1-6.2-32-7.2v-9.8L1448.8,1109.9z"/>
			<path class="st0" d="M1952.1,1109.9c4.3,18.1,6.5,34.9,6.5,50.4v7.5c38.3-38.6,83.8-57.9,136.6-57.9c39.5,0,71.3,9.3,95.4,27.8
				c23.8,18.3,35.7,44.2,35.7,78v196.8c0,21,1.2,36.4,3.7,46.2c2.5,9.8,7.3,17.9,14.4,24.4c8.6,8.4,24.5,14.7,47.7,19v9.8h-204.7
				v-9.8c18.5-2.5,31.8-6,39.8-10.4c8-4.5,14.5-12.1,19.5-23c3.4-7.1,5.8-17.9,7.2-32.2s2.1-35,2.1-62v-98.4
				c0-33.7-1.2-58.5-3.5-74.2c-2.3-15.8-6.7-28.5-13.2-38.1c-7.1-10.8-17.3-19.3-30.5-25.3s-27.9-9.1-43.9-9.1
				c-17.3,0-33.4,3.4-48.3,10.2c-14.9,6.8-26.7,16.1-35.3,27.8c-9.3,12.4-15.3,26.4-18.3,42s-4.4,41.5-4.4,77.7v90.9l0.5,34.3
				c0,21,1.2,36.4,3.7,46.2c2.5,9.7,7.3,17.9,14.4,24.4c8.6,8.4,24.5,14.7,47.7,19v9.8h-204.7v-9.8c18.5-2.5,31.8-5.9,39.8-10.4
				c8-4.5,14.5-12.1,19.5-22.9c3.4-7.1,5.8-17.8,7.2-32.1c1.4-14.3,2.1-35.1,2.1-62.2v-114.2c0-31.7-0.8-54-2.3-66.8
				c-1.5-12.8-4.9-23.2-10.2-31.2c-5.3-8.6-11.6-14.9-19-18.7c-7.4-3.8-18.1-6.2-32-7.2v-9.8L1952.1,1109.9z"/>
			<path class="st0" d="M2421.5,1259c-1.2,15.2-1.9,26.2-1.9,33c0,26.9,3.9,53.3,11.8,79c7.8,25.7,18.5,47.1,32.1,64.1
				c13.9,17.3,31,31,51.5,40.9c20.5,9.9,41.9,14.9,64.4,14.9c16.6,0,32.4-2.8,47.3-8.4s27.3-13.3,37.2-23.2
				c11.1-10.8,20.6-28.2,28.6-52l9.7,3.3c-8,36.2-25.2,63.6-51.6,82c-26.4,18.4-61.5,27.6-105.4,27.6c-38,0-70.6-6-97.7-18.1
				c-27.2-12.1-50.2-30.7-69-55.8c-26.2-35-39.4-78.1-39.4-129.2c0-69.7,24.9-124.4,74.6-164c36.1-28.8,77.3-43.2,123.7-43.2
				c24.7,0,47.5,4.4,68.5,13.2c21,8.8,38.7,21.6,53.3,38.3c22.5,26,33.8,58.5,33.8,97.6H2421.5z M2623.5,1240.9
				c-2.2-31-7.8-54.8-17.1-71.5c-8.3-15.2-19.4-27.2-33.2-36c-13.8-8.8-28.6-13.2-44.3-13.2c-26.4,0-49.6,11.5-69.4,34.4
				c-19.8,22.9-31.6,51.7-35.3,86.4H2623.5z"/>
			<path class="st0" d="M3106.8,1424l9.3,3.3c-10.8,32.8-27.3,56.5-49.6,71.1c-22.2,14.6-52.8,21.8-91.7,21.8
				c-62.4,0-111.3-18.6-146.8-55.8c-34.6-36.5-51.9-82.7-51.9-138.4c0-27.3,4.8-54.2,14.4-80.8c9.6-26.6,22.7-49.4,39.4-68.3
				c18.8-21.7,41.9-38.3,69.2-49.7c27.3-11.5,57.2-17.2,89.6-17.2c44.8,0,79.8,10.1,105.1,30.2c15.4,12.4,23.2,26,23.2,40.9
				c0,9.9-3.2,18.2-9.7,24.9c-6.5,6.7-14.4,10-23.6,10c-20.1,0-34.9-14.7-44.5-44.1c-4.3-13.6-7.8-22.9-10.4-27.9
				c-2.6-5-6.4-9.3-11.3-13c-9.6-7.1-21.3-10.7-35.1-10.7c-18.2,0-35,5.1-50.4,15.3c-13.6,9-25,20.2-34.4,33.7
				c-9.4,13.5-17.6,30.4-24.7,50.9c-10.8,31.3-16.2,62-16.2,92c0,27.6,4.9,54.5,14.8,80.8c9.9,26.3,23.3,48.3,40.2,66
				c26.5,27.9,57.6,41.8,93.4,41.8c29.6,0,54.1-9.4,73.5-28.3C3088.4,1462.4,3097.8,1446.3,3106.8,1424z"/>
			<path class="st0" d="M3312.9,1031.8h52v21h-52V1382c0,39.6,6.7,67.9,20.2,84.8c7.1,9.4,16.4,16.8,28,22.1s24.1,7.9,37.5,7.9
				c16.8,0,30.8-3.5,42-10.5c11.2-7,23.5-19.8,37-38.5l8.4,7c-12.4,22.7-29.8,39.6-52.1,50.5c-22.3,11-50.2,16.5-83.6,16.5
				c-44.3,0-76.6-8.7-96.8-26c-10.9-9-18-19.8-21.4-32.5s-5.1-35.3-5.1-68.1v-342.4h-60.2v-8.8c24.4-7.7,46.9-22.9,67.6-45.5
				c12.5-13.9,22.6-27.8,30.2-41.5s14.8-31.5,21.6-53.4l5.7-18.6h21.1V1031.8z"/>
		</g>
	</g>
	<g>
		<path class="st1" d="M178.3,1138l131.4-16.4v262.8l0.5,34.6c0,20.6,1.2,35.7,3.7,45.2c2.4,9.6,7.1,17.5,14.1,23.9
			c8.5,8.2,24.2,14.4,47,18.6v9.6H173.2v-9.6c18.3-2.4,31.3-5.8,39.2-10.2c7.9-4.4,14.3-11.9,19.2-22.5c3.3-7,5.7-17.5,7.1-31.5
			c1.4-14.1,2.1-34.4,2.1-61.1v-112.1c0-31.2-0.8-53-2.3-65.6c-1.5-12.6-4.9-22.8-10-30.6c-5.2-8.5-11.4-14.6-18.7-18.4
			c-7.3-3.8-17.8-6.1-31.5-7V1138z M273.4,957.8c-11.9,0-21.8-3.8-29.6-11.4c-7.8-7.6-11.7-17.2-11.7-28.7c0-11.3,4-20.8,11.9-28.5
			c7.9-7.8,17.7-11.6,29.4-11.6c11.6,0,21.4,3.9,29.4,11.6c7.9,7.8,11.9,17.3,11.9,28.5c0,11.6-3.9,21.1-11.7,28.7
			C295.2,954,285.3,957.8,273.4,957.8z"/>
	</g>
	<path class="st2" d="M3508.7,1414.4c0,8.2-6.7,14.9-15,14.9c-8.2,0-14.9-6.7-14.9-14.9c0-8.2,6.7-14.9,14.9-14.9
		C3502,1399.5,3508.7,1406.2,3508.7,1414.4z"/>
	<g>
		<path class="st3" d="M3441.1,1277h44.6v-31.7h10.4v31.7h88c8.8,0,14.7-1.3,17.8-3.8c3.1-2.5,4.6-5.8,4.6-9.7c0-3.3-1-6.4-3-9.5
			c-2-3.1-5-5.4-9-7.1v-5.8c9.7,3.5,17,8.3,21.9,14.7c4.9,6.3,7.3,12.8,7.3,19.6c0,4.5-1.3,9-3.8,13.3c-2.5,4.3-6.1,7.6-10.8,9.6
			c-4.7,2.1-11.9,3.1-21.7,3.1h-91.3v21.5h-4.9c-2.2-5.4-5.9-11-11-16.7c-5.2-5.7-11.3-10.7-18.4-15.2c-3.8-2.3-10.6-5.4-20.6-9.5
			V1277z"/>
		<path class="st3" d="M3536.8,1206.2c20.2,0.1,36-4.8,47.4-14.7c11.5-9.9,17.2-21.5,17.2-34.8c0-8.9-2.4-16.6-7.3-23.2
			c-4.9-6.6-13.3-12.1-25.1-16.5l3-4.6c13.5,2.1,25.9,8.1,37,18.1c11.1,10,16.7,22.5,16.7,37.5c0,16.3-6.3,30.3-19,41.9
			c-12.7,11.6-29.8,17.4-51.2,17.4c-23.2,0-41.3-6-54.3-17.9c-13-11.9-19.5-26.8-19.5-44.8c0-15.2,5-27.7,15-37.5
			c10-9.8,23.4-14.7,40.2-14.7V1206.2z M3528.2,1206.2v-62.8c-8.7,0.5-14.8,1.5-18.4,3.1c-5.5,2.5-9.9,6.1-13,11
			c-3.2,4.9-4.7,10-4.7,15.3c0,8.2,3.2,15.5,9.6,22C3508,1201.4,3516.9,1205.1,3528.2,1206.2z"/>
		<path class="st3" d="M3569.9,976c17.9,3.7,31.6,10.8,41.3,21.5c9.6,10.7,14.4,22.5,14.4,35.4c0,15.4-6.5,28.8-19.4,40.3
			c-12.9,11.5-30.4,17.2-52.5,17.2c-21.3,0-38.7-6.3-52-19c-13.3-12.7-20-27.9-20-45.7c0-13.3,3.5-24.3,10.6-32.9
			c7.1-8.6,14.4-12.9,22-12.9c3.8,0,6.8,1.2,9.1,3.6c2.3,2.4,3.5,5.8,3.5,10.2c0,5.8-1.9,10.2-5.6,13.2c-2.1,1.7-6,2.8-11.9,3.3
			c-5.8,0.5-10.3,2.5-13.3,6c-3,3.5-4.4,8.3-4.4,14.4c0,9.9,3.7,17.8,11,23.9c9.7,8,22.5,12,38.4,12c16.2,0,30.5-4,42.9-11.9
			c12.4-8,18.6-18.7,18.6-32.2c0-9.7-3.3-18.4-9.9-26.1c-4.5-5.4-12.8-10.7-24.7-15.9L3569.9,976z"/>
		<path class="st3" d="M3410.7,913.7h99.3c-12.1-11-19.8-19.7-23.2-26.1c-3.4-6.4-5.1-12.8-5.1-19.3c0-7.7,2.1-14.3,6.4-19.9
			c4.2-5.5,10.9-9.6,20-12.3c6.3-1.9,17.9-2.8,34.7-2.8h48c8.6,0,14.5-0.7,17.6-2.1c2.4-1,4.2-2.7,5.6-5c1.4-2.4,2.1-6.7,2.1-13h5.3
			v66.7h-5.3v-3.1c0-6.3-1-10.7-2.9-13.2c-1.9-2.5-4.8-4.2-8.5-5.2c-1.6-0.3-6.2-0.4-13.9-0.4h-48c-14.8,0-24.5,0.8-29.2,2.3
			c-4.6,1.5-8.1,4-10.4,7.3c-2.3,3.4-3.5,7.4-3.5,12.2c0,4.8,1.3,9.9,3.9,15.1c2.6,5.2,7.8,11.5,15.6,18.8h71.7
			c9.3,0,15.1-0.5,17.3-1.6c2.3-1,4.2-3,5.7-5.8c1.5-2.8,2.3-7.7,2.3-14.6h5.3v67.3h-5.3c0-6-0.9-10.8-2.8-14.2
			c-1-2-2.9-3.6-5.6-4.7c-2.8-1.2-8.4-1.8-16.9-1.8h-122.8c-15.5,0-25,0.4-28.6,1.1c-3.6,0.7-6,1.9-7.3,3.4
			c-1.3,1.5-1.9,3.6-1.9,6.1c0,2.1,0.8,5.4,2.4,10.1l-5.2,2.1l-16.6-40.6V913.7z"/>
	</g>
	<path class="st2" d="M2111.5,490.9c0.5,0.1,0,0,0.5,0.1"/>
	<path class="st2" d="M2112,491c562.2,153.6,535.7,317.3,752.5,387.3c162.6,48.5,300.2,31.7,397.1,13.4c17.8-3.4,22.7-26.5,7.9-36.9
		c-154.1-108.4-582.7-360.7-1393.2-430.5C727,358,298.6,821.3,242.4,890.9c-6.3,7.8-10.3,16.3-10.3,26.7c0,11.6,3.9,21.1,11.7,28.7
		c7.4,7.2,16.6,10.9,27.7,11.3c0.2,0,0.3,0,0.5,0c0.5,0,1,0.1,1.5,0.1c0.4,0,0.9,0,1.3-0.1c0.4,0,0.9,0,1.3-0.1
		c10.8-0.5,19.8-4.3,27-11.3c7.8-7.6,11.7-17.2,11.7-28.7c0-11.2-4-20.8-11.9-28.5c-1.2-1.1-6.3-5.3-7.4-6.7
		c-3.9-4.8-5.8-9.9-2-17.4c0.4-0.8,0.9-1.6,1.4-2.3c168.5-240.1,1010.7-561.4,1816.7-371.9C2111.5,490.9,2111.9,490.9,2112,491z"/>
	<path id="new" class="st1" d="M3268.9,828.9c17.4,10.1,13.6,36.3-6,41c-17.7,4.3-172.3,29.7-233.1,28.5
		c-94.7-2-187-17.3-269.1-67.7c-40-24.5-76.2-55.2-114.2-82.9c-194.2-141.6-409.3-235-645-281.4c-98.3-19.4-197.5-30.1-297.7-32.8
		c-121-3.2-241.7,1.8-362,14.6c-239.3,25.4-471,80.9-691.1,180.4c-119.3,54-231.7,119.3-330.1,206.7c-6.6,5.9-12.7,13-17.2,20.6
		c-6.6,11-2.9,21.4,4.4,31.4c15.4,21.2,14.5,41.4-1.8,57.4c-15,14.7-41.6,15-59.9,0.7c-18.4-14.4-21.8-43.2-3.8-61.5
		c26.7-27,54.4-53.3,84.1-76.8C457,703.3,603.4,628,758.7,569.2c145.9-55.3,296.5-92.7,450.6-116.7c109.7-17,220-26.9,330.8-30.8
		c120-4.2,240-1.9,359.7,7.2c280.7,21.3,555,75.2,822.7,162.5c155.4,50.7,306.8,111.4,452.6,185.5
		C3199.5,789.3,3238.2,811.1,3268.9,828.9z"/>
	<path class="st1" d="M3499.8,1431.4h-16.7c-3.6,0-6.5-2.9-6.5-6.5v-78.1c0-3.6,2.9-6.5,6.5-6.5h16.7c3.6,0,6.5,2.9,6.5,6.5v78.1
		C3506.4,1428.5,3503.4,1431.4,3499.8,1431.4z"/>
</g>
</svg>
